<?xml version="1.0" encoding="utf-8"?>
<!-- Generator: Adobe Illustrator 17.0.0, SVG Export Plug-In . SVG Version: 6.00 Build 0)  -->
<!DOCTYPE svg PUBLIC "-//W3C//DTD SVG 1.1 Basic//EN" "http://www.w3.org/Graphics/SVG/1.1/DTD/svg11-basic.dtd" [
	<!ENTITY ns_flows "http://ns.adobe.com/Flows/1.0/">
	<!ENTITY ns_extend "http://ns.adobe.com/Extensibility/1.0/">
	<!ENTITY ns_ai "http://ns.adobe.com/AdobeIllustrator/10.0/">
	<!ENTITY ns_graphs "http://ns.adobe.com/Graphs/1.0/">
	<!ENTITY ns_vars "http://ns.adobe.com/Variables/1.0/">
	<!ENTITY ns_imrep "http://ns.adobe.com/ImageReplacement/1.0/">
	<!ENTITY ns_sfw "http://ns.adobe.com/SaveForWeb/1.0/">
	<!ENTITY ns_custom "http://ns.adobe.com/GenericCustomNamespace/1.0/">
	<!ENTITY ns_adobe_xpath "http://ns.adobe.com/XPath/1.0/">
]>
<svg version="1.1" baseProfile="basic" id="Layer_1" xmlns:x="&ns_extend;" xmlns:i="&ns_ai;" xmlns:graph="&ns_graphs;"
	 xmlns="http://www.w3.org/2000/svg" xmlns:xlink="http://www.w3.org/1999/xlink" xmlns:a="http://ns.adobe.com/AdobeSVGViewerExtensions/3.0/"
	 x="0px" y="0px" width="400px" height="400px" viewBox="0 0 400 400" xml:space="preserve">
<metadata>
	<sfw  xmlns="&ns_sfw;">
		<slices></slices>
		<sliceSourceBounds  width="371.718" height="335.973" y="-345" x="14.876" bottomLeftOrigin="true"></sliceSourceBounds>
	</sfw>
</metadata>
<g>
	<path fill="none" stroke="#306C7F" stroke-width="8" stroke-linecap="square" stroke-linejoin="round" d="M73.13,14
		c-29.836,0-53.84,23-53.977,54H73.13c29.837,0,53.84-25,53.978-54H73.13z"/>
</g>
<linearGradient id="SVGID_1_" gradientUnits="userSpaceOnUse" x1="14.876" y1="107.3853" x2="122.8431" y2="107.3853">
	<stop  offset="0" style="stop-color:#306C7F"/>
	<stop  offset="0.9949" style="stop-color:#306C7F;stop-opacity:0"/>
	<a:midPointStop  offset="0" style="stop-color:#306C7F"/>
	<a:midPointStop  offset="0.4864" style="stop-color:#306C7F"/>
	<a:midPointStop  offset="0.9949" style="stop-color:#306C7F;stop-opacity:0"/>
</linearGradient>
<rect x="14.876" y="77.468" fill="url(#SVGID_1_)" width="107.967" height="59.834"/>
<path fill="none" stroke="#306C7F" stroke-width="8" stroke-linejoin="round" d="M73.252,203.288
	c-29.922,0-53.984-25.011-53.984-56.114h107.967v56.114H73.252z"/>
<path fill="none" stroke="#306C7F" stroke-width="8" stroke-linejoin="round" d="M146.237,66.051V13.027h53.984
	c29.923,0,53.984,23.634,53.984,53.024H146.237z"/>
<g>
	<path fill="none" stroke="#306C7F" stroke-width="8" stroke-linecap="square" stroke-linejoin="round" d="M201.01,152
		c-29.836,0-53.84,23-53.977,53h53.977c29.837,0,53.84-24,53.978-53H201.01z"/>
</g>
<linearGradient id="SVGID_2_" gradientUnits="userSpaceOnUse" x1="142.7564" y1="244.6228" x2="250.7235" y2="244.6228">
	<stop  offset="0" style="stop-color:#306C7F"/>
	<stop  offset="1" style="stop-color:#306C7F;stop-opacity:0"/>
	<a:midPointStop  offset="0" style="stop-color:#306C7F"/>
	<a:midPointStop  offset="0.4864" style="stop-color:#306C7F"/>
	<a:midPointStop  offset="1" style="stop-color:#306C7F;stop-opacity:0"/>
</linearGradient>
<rect x="142.756" y="214.706" fill="url(#SVGID_2_)" width="107.967" height="59.834"/>
<path fill="none" stroke="#306C7F" stroke-width="8" stroke-linejoin="round" d="M201.133,340.526
	c-29.922,0-53.984-25.011-53.984-56.114h107.967v56.114H201.133z"/>
<path fill="none" stroke="#306C7F" stroke-width="8" stroke-linejoin="round" d="M274.118,203.288v-53.024h53.984
	c29.923,0,53.984,23.634,53.984,53.024H274.118z"/>
<g>
	<path fill="none" stroke="#306C7F" stroke-width="8" stroke-linejoin="round" d="M328.616,284c-29.836,0-53.84,25-53.977,57h53.977
		c29.837,0,53.84-25,53.978-57H328.616z"/>
</g>
</svg>
